<?xml version="1.0" encoding="UTF-8"?>
<svg id="Layer_2" data-name="Layer 2" xmlns="http://www.w3.org/2000/svg" xmlns:xlink="http://www.w3.org/1999/xlink" viewBox="0 0 871.09 839.06">
  <defs>
    <style>
      .cls-1 {
        fill: #de826c;
      }

      .cls-1, .cls-2, .cls-3, .cls-4, .cls-5, .cls-6, .cls-7, .cls-8, .cls-9, .cls-10, .cls-11, .cls-12, .cls-13 {
        fill-rule: evenodd;
      }

      .cls-2 {
        fill: #f9c153;
      }

      .cls-3 {
        fill: #fff;
      }

      .cls-4 {
        fill: #8e8e8e;
      }

      .cls-5 {
        fill: #fac152;
      }

      .cls-6 {
        fill: #6b6b6b;
      }

      .cls-7 {
        fill: #feb39d;
      }

      .cls-8 {
        fill: #9d2b0a;
      }

      .cls-14 {
        clip-path: url(#clippath);
      }

      .cls-15 {
        clip-rule: evenodd;
        fill: none;
      }

      .cls-9 {
        fill: #383838;
      }

      .cls-10 {
        fill: #ebab3c;
      }

      .cls-11 {
        fill: #3e1623;
      }

      .cls-12 {
        fill: #dd7e6a;
      }

      .cls-13 {
        fill: #3c1522;
      }
    </style>
    <clipPath id="clippath">
      <path class="cls-15" d="M187.23,312.87s-113.17,360.88-30.49,232.17l-5.67,153.23,408.9,9.54-2.69-74.08s-21.02,105.65-7.02,156.24c9.51,34.37,59.51,20.46,65.91,11.87,11.05-14.85,9.73-201.3-6.89-306.91-5.58-35.47-50.23-226.17-209.92-207.85l-5.11,22.04c-13.59,8.12-25.92,11.67-36.44,8.54l-38.96-34.96s-60.28-16.42-131.62,30.18h0Z"/>
    </clipPath>
  </defs>
  <g id="Layer_1-2" data-name="Layer 1">
    <g>
      <path class="cls-7" d="M327.31,187.42c6.65,2.6,.5,72.22-4.29,128.67-.27,3.22,10.37,21.43,22.42,32.18,7.59,6.76,18.36,10.09,19.06,6.36,10.53-7.19,16.43-20.1,21.14-30.36,0,0-8.91-16.99-7.17-94.3,1.74-77.3-51.17-42.55-51.17-42.55h0Z"/>
      <path class="cls-1" d="M336.87,339.22c-3.02-4.96-4.83-8.95-4.71-10.3,4.79-56.45,10.94-126.07,4.29-128.67,0,0,22.53-14.8,37.7-3.6-12.4-31.84-46.83-9.23-46.83-9.23,6.65,2.6,.5,72.22-4.29,128.67-.2,2.42,5.76,13.31,13.85,23.13h0Z"/>
      <path class="cls-7" d="M464.96,147.44c10.05,7.76,9.11,25.85-2.1,40.37-11.21,14.52-28.47,20-38.52,12.24-10.05-7.76-9.11-25.85,2.1-40.37,11.21-14.52,28.47-20,38.52-12.24h0Z"/>
      <path class="cls-7" d="M422.53,220.85c-10.8,21.3-26.44,36.97-47.64,42.5,0,0-43.68,10.49-73.43-80.58-10.08-.2-50.88-26.19-31.34-52.93,15.66-21.44,35.6-2.02,35.36,10.41l6.78-65.81,81.38-24.88,46.12,15.42,15.7,34.14c7.58-7.42-21.83,99.84-32.92,121.73h0Z"/>
      <path class="cls-1" d="M306.15,143.91c.2,2.48,26.37-9.98,32.76-38.71,6.08-27.31,22.76-32.57,76.58-5.71,53.82,26.86,42.18-18.67,42.18-18.67,0,0-71.05-34.22-73.97-38.21-2.92-3.99-55.87,21.77-55.87,21.77l-18.18,61.98-3.5,17.55h0Z"/>
      <path class="cls-1" d="M281.54,120.88c-18.21,26.46,21.9,51.96,31.89,52.16,29.75,91.07,73.43,80.58,73.43,80.58,5.93-1.55,11.39-3.99,16.41-7.19-7.98,8.07-17.36,14.05-28.37,16.92,0,0-43.68,10.49-73.43-80.58-10.08-.2-50.88-26.19-31.34-52.93,3.67-5.03,7.58-7.81,11.42-8.96h0Zm42.04-49.9l-6.13,59.54c.11-5.46-3.67-12.26-9.28-16.37l4.09-39.72,11.32-3.46h0Z"/>
      <path class="cls-13" d="M304.09,145.57s17.4-3.63,23.14-32.77c5.74-29.14,24.44-45.27,44.82-25.31,41.36,40.52,117.02,80.97,149.27,7.3,15.83-36.17-18.99-68.18-42.75-71.8-26.88-4.1-44.1-2.89-69.84-14.22-25.74-11.33-74.29-16.39-87.98,14.65,0,0-69.35,9.78-37.55,96.68,0,0,20.97,4.64,20.89,25.46h0Z"/>
      <path class="cls-2" d="M187.23,312.87s-113.17,360.88-30.49,232.17l-5.67,153.23,408.9,9.54-2.69-74.08s-21.02,105.65-7.02,156.24c9.51,34.37,59.51,20.46,65.91,11.87,11.05-14.85,9.73-201.3-6.89-306.91-5.58-35.47-50.23-226.17-209.92-207.85l-5.11,22.04c-13.59,8.12-25.92,11.67-36.44,8.54l-38.96-34.96s-60.28-16.42-131.62,30.18h0Z"/>
      <g class="cls-14">
        <path class="cls-10" d="M170.85,432.59s-11.4,91.25-23.83,144.63c-12.43,53.37,20.14,82.83,20.14,82.83,0,0,39.13-138.9,3.69-227.46h0Z"/>
        <path class="cls-10" d="M548.83,532.85l9.85,131.41s-29.4,5.82-35.09,3.01c-5.69-2.81,7.74-16.2,7.74-16.2l17.51-118.22h0Z"/>
      </g>
      <path class="cls-10" d="M368.93,318.41s4.59,59.27-2.83,91.65c-.43,1.86,.73,3.71,2.59,4.13,1.86,.42,3.71-.74,4.13-2.59,7.59-33.11,2.98-93.72,2.98-93.72-.15-1.9-1.81-3.32-3.7-3.18-1.9,.15-3.32,1.8-3.18,3.7h0Z"/>
      <path class="cls-10" d="M373.81,322.73c1.48-1.89,1.41-4.86-.15-6.64l-49.96-56.71c-1.56-1.77-4.02-1.67-5.5,.22l-17.77,22.75c-1.48,1.89-1.41,4.86,.15,6.64l49.96,56.71c1.56,1.77,4.02,1.67,5.5-.22l17.77-22.75h0Z"/>
      <path class="cls-10" d="M374.51,325.05c-2.07-1.46-3.51-4.45-3.2-6.69l6.65-48.15c.31-2.23,2.24-2.86,4.32-1.41l24.95,17.52c2.07,1.46,3.51,4.45,3.2,6.69l-6.65,48.15c-.31,2.23-2.24,2.86-4.32,1.41l-24.95-17.52h0Z"/>
      <path class="cls-11" d="M136.38,790.18l18.18-163.56c8.96,10.92,72.92-76.45,80.69-226.99v-110.28c13.15-4.42,25.33-6.92,36.09-8.23v106.03s80.13,20.13,163.35-.02v-100.9c12.79,.92,24.82,3.17,36.09,6.5v113.82h-.41c5.53,50.93,43.44,211.23,87.09,229.31,0,0,2.9,63.49,7.33,154.33H136.38Z"/>
      <path class="cls-8" d="M470.48,608.94H244.96c.26,58,32.29,104.95,71.7,104.95h82.11c39.41,0,71.44-46.96,71.7-104.95h0Z"/>
      <path class="cls-7" d="M468.61,569.37c0-2.84-2.31-5.15-5.15-5.15H251.2c-2.84,0-5.15,2.31-5.15,5.15s2.31,5.15,5.15,5.15h212.26c2.84,0,5.15-2.31,5.15-5.15h0Z"/>
      <path class="cls-8" d="M314.2,423.14c.26-.79,.55-1.65,.83-2.32,.91-2.21,1.64-4.31,1.65-5.35,0-1.12-.43-1.9-.94-2.42-.42-.42-1.02-.8-1.92-.87-.59-.05-1.85,.17-3.46,.86-5.25,2.24-17.08,9.42-18.67,10.67-1.19,.94-1.4,2.66-.46,3.86,.94,1.19,2.67,1.4,3.86,.46,1.11-.88,9.33-5.36,14.46-8.14-.61,1.52-1.2,3.07-1.4,4.25-.32,1.94,.24,3.38,1.09,4.2,.72,.68,1.78,1.2,3.42,.96,2.49-.35,5.15-1.68,7.76-3.42,3.25-2.15,6.45-4.94,9.19-6.43-1.17,2.11-2.18,4.3-2.33,5.87-.15,1.54,.3,2.76,1.18,3.64,.93,.93,2.34,1.45,4.03,1.46,2.3,0,5.32-1.03,6.61-1.43,4.46-1.41,11.92-6.61,17.09-9.43,.36-.19,.75-.39,1.14-.56-.21,.9-.48,1.93-.76,2.77-1.03,3.01-2.18,6.03-2.33,7.25-.24,1.97,.86,2.93,1.6,3.3,1.36,.68,3.07,.66,4.88-.06,2.42-.96,5.19-3.39,6.52-4.2,5.4-3.28,11.62-7.68,17.93-9.01,0,.17,0,.36,0,.51-.05,.89-.21,1.87-.35,2.81-.31,2.14-.39,4.16,.06,5.37,.46,1.22,1.28,2.03,2.47,2.43,.78,.26,1.85,.35,3.14,.17,1.31-.19,2.95-.66,4.76-1.33,6.15-2.25,14.64-6.88,17.75-7.62,1.47-.35,2.39-1.83,2.04-3.31-.35-1.47-1.83-2.39-3.31-2.03-3.21,.76-12.01,5.48-18.37,7.8-1.19,.44-2.28,.78-3.21,.97l-.09,.02c.02-.34,.05-.7,.09-1.01,.2-1.43,.47-2.98,.51-4.32,.07-2.33-.65-4.15-1.98-5.13-.95-.7-2.33-1.16-4.4-.74-6.97,1.4-13.94,6.12-19.9,9.74-.75,.46-1.98,1.47-3.34,2.42,.5-1.48,1.04-3.12,1.42-4.41,.75-2.53,.98-4.81,.61-6.05-.45-1.49-1.43-2.35-2.85-2.62-.59-.11-1.33-.1-2.19,.11-1.14,.27-2.7,.96-4.47,1.93-4.89,2.67-11.9,7.68-16.11,9.02-.74,.23-2.19,.76-3.63,1.03-.21,.04-.48,.07-.74,.08,.11-.3,.23-.62,.36-.88,.86-1.79,2.12-3.78,2.91-5.32,.8-1.57,1.1-2.94,1.01-3.75-.14-1.23-.76-2.08-1.78-2.59-.61-.3-1.56-.49-2.72-.25-1.82,.38-4.96,2.07-5.71,2.47-2.45,1.31-5.27,3.59-8.17,5.66-1.6,1.14-3.2,2.25-4.78,2.95h0Z"/>
      <path class="cls-7" d="M211.76,758.95s30.32,10.49,49.65-2.21c16.58-10.9,62.76-1.16,79.3,26.72,15.46,26.07-9.48,27.42-19.97,23.72-10.49-3.7-27.7-12.85-44.71-14.65-17.01-1.8-29.07,1.4-36.74,1.64-7.67,.25-27.52-35.23-27.52-35.23h0Z"/>
      <path class="cls-12" d="M215.64,765.58c-2.36-3.92-3.87-6.63-3.87-6.63,0,0,30.32,10.49,49.65-2.21,16.58-10.9,62.76-1.16,79.3,26.72,4.1,6.92,5.36,12.09,4.8,15.9-.67-2.9-2.09-6.32-4.46-10.32-16.54-27.88-62.71-37.62-79.3-26.72-15.33,10.07-37.56,5.56-46.12,3.26h0Z"/>
      <path class="cls-5" d="M182.99,311.57c-67.96,37.41-151.06,300.75-126.04,370.27,28.22,78.41,53.9,67.16,150.11,124.38,0,0,56.57-29.4,65.5-61.88,0,0-77.99-58.48-111.65-115.65,0,0,9.88-180.04,13.74-205.6,3.87-25.56,105.65-165.07,8.34-111.51h0Z"/>
      <path class="cls-6" d="M726.79,543.04c2.92-18.32-9.57-33.19-27.89-33.19h-186.07c-18.32,0-35.56,14.87-38.48,33.19l-25.68,161.01c-2.92,18.31,9.58,33.18,27.89,33.18h186.07c18.32,0,35.56-14.87,38.48-33.18l25.68-161.01h0Z"/>
      <path class="cls-4" d="M739.92,543.04c2.92-18.32-9.58-33.19-27.89-33.19h-186.07c-18.32,0-35.56,14.87-38.48,33.19l-25.68,161.01c-2.92,18.31,9.58,33.18,27.89,33.18h186.07c18.32,0,35.56-14.87,38.48-33.18l25.68-161.01h0Z"/>
      <path class="cls-6" d="M628.13,648.68c1.41-8.76-4.57-15.88-13.33-15.88h-14.34c-8.77,0-17.02,7.12-18.43,15.88l-18.72,116.69c-1.41,8.76,4.57,15.88,13.33,15.88h14.34c8.77,0,17.02-7.12,18.43-15.88l18.72-116.69h0Z"/>
      <path class="cls-3" d="M705.65,560.92c.5-3.16-1.65-5.72-4.8-5.72h-176.99c-3.16,0-6.13,2.56-6.64,5.72l-.83,5.17c-.51,3.16,1.64,5.72,4.8,5.72h176.99c3.16,0,6.13-2.56,6.64-5.72l.83-5.17h0Z"/>
      <path class="cls-4" d="M709.61,768.87c0-6.76-5.49-12.25-12.25-12.25h-249.11c-6.76,0-12.25,5.49-12.25,12.25v12.95c0,6.76,5.49,12.25,12.25,12.25h249.11c6.76,0,12.25-5.49,12.25-12.25v-12.95h0Z"/>
      <path class="cls-6" d="M444.12,793.93c-.94-1.89-1.48-4.14-1.48-6.55v-12.95c0-6.76,4.29-12.25,9.57-12.25h254.45c.5,0,.99,.05,1.46,.14-1.7-3.43-4.69-5.71-8.09-5.71h-254.45c-5.29,0-9.58,5.49-9.58,12.25v12.95c0,6.12,3.52,11.2,8.11,12.11h0Z"/>
      <path class="cls-9" d="M871.09,800.25c0-8.91-7.24-16.15-16.15-16.15H16.15c-8.91,0-16.15,7.24-16.15,16.15v22.65c0,8.91,7.24,16.15,16.15,16.15H854.94c8.91,0,16.15-7.24,16.15-16.15v-22.65h0Z"/>
    </g>
  </g>
</svg>