<svg width="512" height="512" viewBox="0 0 512 512" fill="none" xmlns="http://www.w3.org/2000/svg">
<path d="M447.1 256.2C401.8 204 339.2 144 256 144C222.4 144 191.6 153.5 159.1 173.8C131.7 191 103.6 215.2 65 255L64 256L70.7 262.9C125.8 319.3 173.4 368 256 368C292.5 368 327.9 356.1 364.2 331.6C395.1 310.7 421.4 284.2 442.5 262.8L448 257.3L447.1 256.2ZM256 160C289.1 160 320.9 169.5 353.2 190.6C377.1 206.2 400.6 227.3 426.9 256.7C388.6 295.4 331.1 352 256 352C221.8 352 191.8 343.6 161.8 323.8C134.3 305.7 109.5 280.5 85.6 256C144.7 196.3 194 160 256 160Z" fill="#7C0E6F"/>
<path d="M256 336C300.1 336 336 300.1 336 256C336 211.9 300.1 176 256 176C211.9 176 176 211.9 176 256C176 300.1 211.9 336 256 336ZM256 192.3C291.2 192.3 320 220.9 320 256C320 291.1 291.2 319.7 256 319.7C220.8 319.7 192.1 291.1 192.1 256C192.1 220.9 220.8 192.3 256 192.3Z" fill="#7C0E6F"/>
<path d="M288 256C288 273.5 273.6 288 256.2 288C238.8 288 224 272.8 224 255.3C224 237.8 239.8 224 256 224V208C229.5 208 208.1 229.6 208.1 256.2C208.1 282.8 229.6 304.3 256 304.3C282.4 304.3 304 282.7 304 256.2V256H288Z" fill="#7C0E6F"/>
</svg>
