<svg id="temp_avatar-299B99_temp" xmlns="http://www.w3.org/2000/svg" width="100" height="100" viewBox="0 0 100 100">
  <path id="Path_1207" data-name="Path 1207" d="M100,50A50.014,50.014,0,0,1,54.106,99.832c-1.355.113-2.729.168-4.114.168s-2.765-.055-4.111-.168A50,50,0,1,1,100,50Z" transform="translate(0 0)" fill="#008bd2"/>
  <path id="Path_1208" data-name="Path 1208" d="M56.273,52.6H40.791A11.924,11.924,0,0,1,28.866,40.671,15.449,15.449,0,0,1,44.316,25.222H56.569A11.133,11.133,0,0,1,67.7,36.355v4.8A11.438,11.438,0,0,1,56.273,52.6Z" transform="translate(0 0)"/>
  <path id="Path_1209" data-name="Path 1209" d="M55.54,62.62H42.46V80.171H55.54Z" transform="translate(0 0)" fill="#e6e6cf"/>
  <path id="Path_1210" data-name="Path 1210" d="M49,64.929A14.025,14.025,0,0,1,34.971,50.9V37.063A9.953,9.953,0,0,1,44.924,27.1H57.282a5.726,5.726,0,0,1,5.726,5.726V50.9A14.026,14.026,0,0,1,49,64.929Z" transform="translate(0 0)" fill="#e6e6cf"/>
  <path id="Path_1211" data-name="Path 1211" d="M54,36.341h-13.8a10.264,10.264,0,0,1,.044-20.528H63.37a2.967,2.967,0,0,1,2.969,2.969v5.228A12.331,12.331,0,0,1,54,36.341Z" transform="translate(0 0)"/>
  <path id="Path_1212" data-name="Path 1212" d="M41.286,43.876a.362.362,0,0,1,.083-.553,2.737,2.737,0,0,1,1.9-.359.362.362,0,0,1-.127.713,2.01,2.01,0,0,0-1.4.276.357.357,0,0,1-.459-.077Z" transform="translate(0 0)" fill="#008bd2"/>
  <path id="Path_1213" data-name="Path 1213" d="M43.154,46.878a.76.76,0,1,0-.76-.76A.76.76,0,0,0,43.154,46.878Z" transform="translate(0 0)" fill="#008bd2"/>
  <path id="Path_1214" data-name="Path 1214" d="M57.029,44.116a.359.359,0,0,0-.086-.553,2.7,2.7,0,0,0-.89-.351,2.746,2.746,0,0,0-1.006,0,.362.362,0,0,0-.276.473.365.365,0,0,0,.406.241,2.016,2.016,0,0,1,.738,0,1.99,1.99,0,0,1,.655.257.362.362,0,0,0,.459-.066Z" transform="translate(0 0)" fill="#008bd2"/>
  <path id="Path_1215" data-name="Path 1215" d="M55.335,46.95a.713.713,0,1,0-.713-.713A.713.713,0,0,0,55.335,46.95Z" transform="translate(0 0)" fill="#008bd2"/>
  <path id="Path_1216" data-name="Path 1216" d="M53.276,55.587A3.123,3.123,0,0,1,52,57.8a4.335,4.335,0,0,1-2.671.879,4.455,4.455,0,0,1-1.006-.113A3.536,3.536,0,0,1,45.394,55.6Z" transform="translate(0 0)" fill="#008bd2"/>
  <path id="Path_1217" data-name="Path 1217" d="M52,57.791a4.335,4.335,0,0,1-2.671.879,4.455,4.455,0,0,1-1.006-.113,1.35,1.35,0,0,1-.077-.462,1.794,1.794,0,0,1,1.9-1.675A1.836,1.836,0,0,1,52,57.791Z" transform="translate(0 0)" fill="#959594"/>
  <path id="Path_1218" data-name="Path 1218" d="M83.345,87.263a49.815,49.815,0,0,1-29.221,12.58H45.9A49.764,49.764,0,0,1,16.438,87.058,17.4,17.4,0,0,1,21.932,75.6,20.182,20.182,0,0,1,33.82,70.92a31.1,31.1,0,0,1,8.651-.028,6.492,6.492,0,0,0,12.978.028h7.078A21.447,21.447,0,0,1,83.345,87.263Z" transform="translate(0 0)" fill="#fecc00"/>
  <path id="Path_1219" data-name="Path 1219" d="M70.99,91.194v4.211a49.116,49.116,0,0,1-11.335,3.672V91.194Z" transform="translate(0 0)" fill="#008bd2"/>
  <path id="Path_1220" data-name="Path 1220" d="M56.112,51.047A5.966,5.966,0,1,1,60.323,49.3,5.958,5.958,0,0,1,56.112,51.047Zm0-11.3a5.35,5.35,0,1,0,3.776,1.566A5.344,5.344,0,0,0,56.112,39.745Z" transform="translate(0 0)" fill="#008bd2"/>
  <path id="Path_1221" data-name="Path 1221" d="M42.557,51.047A5.966,5.966,0,1,1,46.768,49.3,5.957,5.957,0,0,1,42.557,51.047Zm0-11.3a5.35,5.35,0,1,0,3.776,1.566A5.344,5.344,0,0,0,42.557,39.745Z" transform="translate(0 0)" fill="#008bd2"/>
  <path id="Path_1222" data-name="Path 1222" d="M50.462,44.78H48.208V45.4h2.253Z" transform="translate(0 0)" fill="#008bd2"/>
</svg>
